<?xml version="1.0" standalone="no"?>
<!DOCTYPE svg PUBLIC "-//W3C//DTD SVG 20010904//EN"
 "http://www.w3.org/TR/2001/REC-SVG-20010904/DTD/svg10.dtd">
<svg version="1.0" xmlns="http://www.w3.org/2000/svg"
 width="936.000000pt" height="882.000000pt" viewBox="0 0 936.000000 882.000000"
 preserveAspectRatio="xMidYMid meet">
<metadata>
Created by potrace 1.15, written by Peter Selinger 2001-2017
</metadata>
<g transform="translate(0.000000,882.000000) scale(0.100000,-0.100000)"
fill="#000000" stroke="none">
<path d="M4280 8814 c-393 -35 -613 -91 -665 -170 -14 -22 -16 -22 -50 -9
-160 67 -616 -131 -1220 -530 -371 -245 -536 -376 -740 -587 -338 -349 -544
-623 -738 -983 -184 -340 -339 -727 -372 -929 -6 -33 -4 -38 10 -32 9 3 32 6
50 6 33 0 33 1 63 93 45 139 146 362 352 777 103 206 197 401 210 433 16 39
33 63 51 72 38 20 179 169 332 350 211 251 380 403 677 609 380 264 541 352
875 476 232 86 408 165 460 205 28 21 37 22 74 14 58 -13 168 1 437 58 l229
48 405 0 c297 0 425 -4 480 -13 165 -30 762 -152 841 -172 494 -126 930 -373
1457 -824 336 -288 473 -424 659 -656 190 -238 217 -285 587 -1050 131 -273
133 -275 166 -278 18 -2 36 0 41 5 12 12 -14 125 -50 220 -19 49 -47 99 -71
126 -30 34 -40 54 -40 79 0 73 -82 252 -218 478 -131 219 -204 319 -427 585
-119 143 -233 283 -254 312 -35 50 -38 52 -83 53 -44 0 -48 2 -48 23 0 46
-107 162 -246 269 -68 51 -398 282 -480 334 -82 53 -194 94 -254 94 l-52 0 7
38 6 39 -73 26 c-675 239 -917 318 -1066 347 -267 53 -376 61 -847 65 -236 1
-450 1 -475 -1z"/>
<path d="M4485 8634 c-355 -17 -567 -53 -650 -110 -33 -22 -47 -25 -98 -22
-42 2 -61 -1 -64 -9 -8 -22 73 -15 294 23 331 57 385 63 628 75 230 10 377 7
555 -12 95 -11 702 -131 850 -169 565 -144 1387 -675 1852 -1197 186 -208 287
-346 478 -653 147 -237 181 -304 255 -500 71 -188 127 -311 153 -332 14 -12
15 -7 9 45 -38 323 -437 978 -960 1575 -162 185 -393 377 -692 577 -412 274
-796 458 -1137 546 -185 47 -631 131 -768 144 -145 14 -574 25 -705 19z"/>
<path d="M3435 8436 c-265 -74 -599 -233 -945 -450 -328 -206 -544 -368 -615
-462 -16 -21 -102 -113 -191 -204 -236 -241 -429 -495 -596 -785 -232 -404
-385 -746 -390 -876 -2 -47 16 -89 26 -58 44 151 99 309 143 409 195 448 547
987 853 1304 202 209 759 623 1115 827 294 168 613 288 772 289 36 1 37 2 19
15 -28 21 -97 18 -191 -9z"/>
<path d="M4859 8392 c-30 -25 -18 -55 34 -84 51 -28 54 -43 33 -157 -8 -47
-21 -151 -27 -231 -6 -80 -15 -149 -20 -154 -5 -6 -27 -9 -48 -8 -43 3 -61
-15 -61 -58 0 -27 54 -51 112 -49 24 0 68 -4 98 -9 30 -6 74 -8 97 -5 35 5 44
10 52 35 9 27 8 30 -22 43 -18 7 -44 16 -59 19 -41 9 -45 57 -18 243 23 159
25 168 38 168 14 0 72 -108 199 -369 66 -136 90 -166 140 -181 34 -9 52 28 57
121 3 43 10 103 15 133 6 29 11 71 11 92 0 27 4 39 14 39 11 0 12 6 4 28 -7
19 -6 55 3 122 14 95 14 95 44 98 17 2 36 8 43 14 13 12 16 47 4 65 -8 12
-193 43 -255 43 -40 0 -65 -24 -60 -54 4 -19 16 -27 56 -38 48 -13 52 -17 55
-47 2 -17 -4 -55 -13 -82 -14 -42 -15 -55 -5 -74 14 -26 7 -100 -12 -122 -17
-21 -52 18 -79 86 -12 31 -32 68 -44 82 -12 15 -28 42 -35 60 -8 19 -20 39
-26 46 -7 7 -20 38 -30 70 -28 92 -36 100 -112 112 -142 21 -159 21 -183 3z"/>
<path d="M4164 8346 c-19 -19 -34 -42 -34 -52 0 -10 -4 -31 -9 -48 -15 -48
-37 -139 -71 -291 -53 -235 -56 -244 -96 -267 -34 -20 -49 -50 -42 -85 3 -16
12 -18 68 -15 36 1 103 10 150 20 84 17 85 17 85 47 0 26 -5 30 -37 38 -37 9
-38 10 -38 53 0 53 9 59 110 68 41 4 79 11 84 16 29 29 106 -15 106 -59 0 -21
-27 -41 -56 -41 -21 0 -43 -28 -44 -56 0 -35 37 -51 100 -42 30 4 82 10 115
13 117 10 155 39 121 90 -11 17 -26 25 -46 25 -34 0 -28 -9 -139 199 -46 85
-100 181 -122 212 -21 32 -39 68 -39 81 0 13 -14 47 -30 76 -28 47 -34 52 -66
52 -28 0 -44 -8 -70 -34z m159 -338 c29 -50 34 -65 24 -74 -17 -17 -177 -27
-177 -11 0 7 11 39 25 72 23 57 37 70 81 74 6 1 27 -27 47 -61z"/>
<path d="M5965 8242 c-13 -2 -29 -20 -42 -45 -28 -55 -83 -187 -83 -198 0 -5
9 -18 21 -30 32 -32 68 -14 100 50 45 89 63 98 142 67 49 -18 58 -36 38 -74
-32 -57 -151 -322 -151 -334 0 -8 -4 -18 -8 -24 -5 -5 -15 -28 -22 -51 -15
-50 -27 -52 -95 -23 -53 23 -86 25 -103 8 -28 -28 -3 -93 38 -101 14 -3 105
-38 200 -77 l174 -72 18 22 c31 39 23 64 -37 109 -61 46 -59 38 -29 147 7 28
20 57 28 63 8 7 20 36 26 64 6 29 24 92 40 141 17 49 30 97 30 108 0 34 73 21
120 -22 28 -25 31 -49 14 -106 -8 -29 -14 -70 -12 -91 3 -36 5 -38 37 -38 42
0 68 32 77 94 3 24 15 62 25 85 28 62 25 93 -12 115 -18 11 -102 47 -188 82
-86 34 -167 68 -181 75 -50 27 -146 59 -165 56z"/>
<path d="M3339 8156 c-2 -3 -24 -7 -49 -10 -65 -8 -106 -22 -136 -45 -15 -12
-36 -21 -48 -21 -12 0 -31 -7 -43 -15 -30 -21 -149 -65 -157 -58 -3 3 -17 -2
-32 -12 -23 -15 -25 -21 -19 -53 9 -48 29 -61 74 -51 20 5 41 9 46 9 10 0 65
-114 65 -133 0 -5 6 -23 14 -40 45 -97 123 -306 117 -315 -3 -5 -22 -14 -43
-21 -54 -18 -67 -68 -24 -96 23 -15 30 -14 123 21 54 20 121 43 148 51 91 27
106 60 53 112 -38 37 -38 37 -89 11 l-39 -21 -35 73 c-49 101 -47 111 21 137
31 11 62 21 70 21 8 0 14 5 14 10 0 17 36 11 63 -10 14 -11 29 -20 34 -20 21
0 86 -76 134 -157 16 -28 24 -33 57 -33 26 0 45 7 57 20 10 11 31 20 47 20 22
0 31 6 39 26 5 15 7 35 4 44 -7 21 -59 45 -75 35 -7 -4 -35 18 -68 54 -39 41
-75 68 -114 85 -32 14 -58 27 -58 30 0 2 18 23 40 47 38 42 40 47 40 112 0
122 -54 180 -180 192 -26 3 -49 3 -51 1z m42 -143 c41 -24 45 -51 15 -109 -35
-67 -50 -84 -73 -84 -11 0 -40 -13 -64 -30 -24 -16 -51 -30 -59 -30 -11 0 -25
29 -47 94 l-31 95 57 34 c77 48 153 59 202 30z"/>
<path d="M6959 7711 c-20 -16 -21 -21 -10 -48 7 -17 32 -45 57 -62 24 -18 44
-36 44 -41 0 -4 -25 -39 -55 -76 -30 -38 -70 -92 -89 -121 -19 -29 -46 -59
-60 -68 -15 -10 -32 -37 -41 -65 -20 -61 -50 -100 -76 -100 -11 0 -36 12 -56
27 -20 15 -52 33 -72 40 -31 11 -38 10 -48 -4 -7 -9 -13 -26 -13 -36 0 -23 73
-97 95 -97 8 0 20 -8 27 -18 17 -24 233 -172 251 -172 18 0 39 47 32 71 -3 10
-28 34 -55 53 -28 20 -50 41 -50 46 0 22 39 86 70 115 17 17 37 44 44 60 7 17
37 57 66 90 29 33 64 84 77 113 14 29 31 56 38 58 7 3 34 -9 61 -25 105 -65
104 -64 125 -45 10 9 19 27 19 39 0 23 -99 135 -119 135 -15 0 -50 20 -75 44
-42 38 -139 106 -151 106 -7 0 -23 -8 -36 -19z"/>
<path d="M2290 7613 c-52 -21 -61 -81 -29 -189 11 -38 29 -98 39 -134 11 -36
40 -131 65 -212 50 -163 50 -163 32 -198 -26 -49 -26 -70 -2 -98 l23 -26 73
58 c103 82 149 127 149 147 0 25 -25 42 -47 32 -30 -15 -53 -9 -70 18 -26 43
-11 73 58 115 34 21 65 48 70 61 16 44 94 40 119 -7 9 -17 6 -25 -17 -47 -34
-35 -38 -68 -10 -88 32 -22 42 -19 104 28 31 23 77 56 104 74 26 18 55 46 64
62 14 29 14 32 -5 51 -23 23 -37 24 -76 10 -24 -10 -36 -5 -108 41 -120 78
-328 199 -341 199 -6 0 -27 16 -46 36 -53 56 -111 82 -149 67z m180 -230 c13
-10 49 -31 80 -48 66 -36 73 -57 28 -84 -18 -11 -45 -32 -61 -46 -46 -42 -67
-30 -67 38 0 18 -7 44 -14 59 -23 44 -24 98 -3 98 7 0 23 -8 37 -17z"/>
<path d="M4480 7439 c-328 -29 -604 -98 -890 -222 -187 -81 -439 -210 -535
-275 -393 -264 -828 -741 -1015 -1112 -46 -90 -93 -210 -86 -217 12 -12 78 21
105 53 17 19 59 94 95 167 108 225 248 418 461 636 273 280 437 397 833 595
382 191 689 287 920 287 93 0 107 3 121 21 17 20 18 20 301 4 157 -9 315 -19
351 -22 65 -6 66 -5 71 20 5 24 2 26 -61 40 -153 35 -437 45 -671 25z"/>
<path d="M5257 7388 c-34 -25 -12 -35 258 -112 231 -67 307 -97 551 -219 193
-97 266 -146 545 -371 110 -90 240 -175 276 -182 24 -5 30 -11 30 -34 0 -39
41 -105 157 -249 57 -70 132 -179 170 -246 88 -154 146 -228 202 -261 25 -15
47 -25 49 -22 8 7 -16 80 -46 145 -89 188 -397 569 -664 821 -113 107 -359
294 -496 378 -114 70 -267 139 -499 227 -295 111 -491 157 -533 125z"/>
<path d="M4575 7323 c-522 -32 -931 -165 -1375 -448 -251 -160 -440 -319 -630
-527 -127 -140 -195 -236 -315 -448 -48 -85 -107 -184 -132 -220 -42 -64 -43
-65 -21 -72 42 -12 46 -8 68 60 74 229 324 569 622 842 192 177 296 257 463
357 504 303 1055 440 1653 412 705 -34 1394 -351 1903 -876 97 -100 139 -156
281 -368 91 -137 185 -270 207 -295 l40 -45 0 30 c1 68 -99 248 -225 406 -209
262 -567 591 -810 744 -346 218 -734 362 -1124 419 -195 28 -433 40 -605 29z"/>
<path d="M4420 7057 c0 -55 -4 -69 -31 -105 l-31 -42 49 0 c47 0 49 -2 88 -56
l39 -55 23 45 c23 46 35 52 98 58 43 4 46 37 5 61 -42 25 -53 51 -45 103 3 24
4 44 1 44 -3 0 -21 -8 -41 -17 -34 -16 -37 -16 -88 5 -29 12 -56 22 -60 22 -4
0 -7 -28 -7 -63z"/>
<path d="M5096 7077 l-48 -30 -44 22 c-25 11 -47 21 -49 21 -3 0 -5 -29 -5
-64 0 -58 -3 -67 -27 -85 -14 -12 -24 -23 -22 -25 2 -2 43 -25 91 -50 l87 -47
-6 35 -6 36 77 0 c75 0 76 0 76 25 0 20 -9 30 -43 46 l-44 21 9 50 c14 75 10
79 -46 45z"/>
<path d="M3988 7009 l-47 -30 -51 26 -52 26 7 -51 c7 -48 5 -54 -24 -90 -17
-21 -31 -43 -31 -48 0 -4 22 -14 49 -21 43 -11 54 -19 82 -62 17 -27 33 -49
35 -49 2 0 8 17 14 38 14 55 43 77 96 76 24 0 44 3 44 7 0 4 3 14 6 23 4 11
-7 22 -40 38 -49 23 -49 25 -37 101 4 26 5 47 2 46 -3 0 -27 -14 -53 -30z"/>
<path d="M1648 7003 c-9 -10 -21 -30 -27 -45 -6 -17 -20 -28 -39 -33 -18 -3
-32 -14 -35 -25 -3 -11 -16 -24 -29 -29 -28 -11 -63 -49 -72 -78 -4 -12 -17
-25 -28 -29 -19 -6 -20 -8 -6 -18 12 -9 14 -27 12 -81 -2 -56 1 -74 15 -90 10
-11 21 -33 25 -49 9 -35 135 -160 228 -223 l68 -47 125 0 124 -1 55 54 c58 57
84 101 95 156 4 16 33 45 46 45 11 0 35 41 35 59 0 5 -18 21 -41 36 -25 18
-42 39 -46 56 -4 19 -14 31 -34 38 -35 12 -35 11 -8 63 l21 41 -23 18 c-33 26
-142 23 -166 -3 -15 -17 -15 -19 1 -31 16 -12 17 -16 3 -48 -8 -19 -33 -55
-55 -80 -49 -55 -62 -106 -35 -131 26 -24 53 -14 87 33 35 46 57 49 85 13 16
-21 21 -41 21 -88 0 -56 -3 -65 -29 -90 -26 -25 -30 -26 -38 -11 -9 16 -12 16
-41 1 -60 -31 -108 -18 -226 64 -40 28 -79 63 -87 78 -7 15 -22 38 -32 52 -32
42 -48 92 -41 125 18 86 97 128 204 105 32 -7 75 -9 94 -6 29 6 36 11 36 31 0
41 -10 54 -73 92 -34 21 -71 47 -82 60 -28 31 -67 39 -87 16z"/>
<path d="M5463 6976 c4 -10 10 -41 13 -69 6 -50 4 -53 -30 -86 -20 -19 -36
-38 -36 -41 0 -4 30 -12 66 -19 63 -13 67 -15 84 -54 l18 -40 21 41 c25 48 48
63 93 60 29 -3 33 0 36 23 2 19 -3 28 -23 37 -28 13 -28 14 -25 95 l2 58 -58
-26 c-32 -14 -60 -28 -62 -30 -3 -3 -28 12 -55 32 -36 26 -49 32 -44 19z"/>
<path d="M7785 6889 c-27 -11 -72 -25 -100 -30 -27 -6 -54 -15 -60 -19 -5 -4
-86 -33 -180 -65 -160 -55 -214 -66 -239 -46 -26 20 -63 20 -84 0 -12 -11 -22
-24 -22 -30 0 -16 180 -219 194 -219 7 0 20 6 30 13 15 11 16 19 8 50 -9 34
-8 39 15 57 47 37 68 27 131 -64 18 -27 41 -50 52 -53 10 -3 24 -18 30 -33 9
-23 9 -34 -4 -59 -19 -37 -54 -41 -81 -11 -34 37 -95 21 -95 -26 0 -22 82
-134 152 -207 43 -45 76 -47 95 -6 11 22 10 32 -1 55 -8 15 -14 30 -12 33 2 3
35 61 75 128 75 129 161 294 161 310 0 5 14 22 31 39 46 44 78 113 66 145 -18
48 -93 66 -162 38z m-45 -178 c0 -5 -16 -35 -35 -67 -19 -32 -35 -63 -35 -69
0 -6 -7 -20 -15 -32 -20 -28 -46 -20 -70 20 -11 18 -29 40 -41 49 -12 10 -24
26 -27 37 -5 22 1 25 68 36 22 3 51 13 65 20 28 16 90 20 90 6z"/>
<path d="M3552 6773 l-44 -26 -44 21 c-25 12 -47 22 -51 22 -3 0 -3 -22 0 -48
5 -44 3 -52 -30 -93 l-35 -44 54 -15 c46 -14 57 -22 88 -68 l34 -52 12 41 c19
62 39 79 96 79 44 0 48 2 48 25 0 19 -10 30 -41 46 l-41 21 6 59 c4 32 3 59
-1 59 -4 -1 -28 -13 -51 -27z"/>
<path d="M6101 6730 c-51 -23 -77 -25 -111 -5 -37 21 -40 19 -33 -34 5 -45 3
-51 -32 -90 -21 -23 -36 -43 -34 -45 2 -2 29 -11 60 -20 52 -14 57 -19 78 -66
12 -27 26 -50 30 -50 4 0 13 17 19 39 15 50 34 64 91 71 40 4 46 8 49 30 2 21
-4 29 -41 47 l-45 22 10 51 c5 28 8 55 6 60 -2 5 -23 0 -47 -10z"/>
<path d="M2976 6466 c9 -49 -3 -90 -37 -125 -35 -38 -38 -61 -5 -61 45 0 86
-22 116 -63 16 -22 30 -39 31 -36 0 2 6 24 12 49 l12 45 68 15 68 15 -45 45
c-27 25 -44 51 -42 60 3 8 7 29 11 47 l6 32 -54 -16 c-51 -14 -56 -14 -95 6
-23 12 -44 21 -47 21 -3 0 -3 -15 1 -34z"/>
<path d="M6476 6430 l-50 -28 -49 25 -50 25 5 -53 c5 -50 3 -57 -29 -95 l-34
-42 55 -16 c49 -14 58 -22 87 -69 l32 -52 14 47 c16 57 43 78 100 78 38 0 43
3 43 23 0 17 -11 28 -44 44 l-44 22 10 51 c5 28 8 55 6 60 -2 5 -25 -4 -52
-20z"/>
<path d="M2610 6048 c-1 -54 -5 -69 -31 -103 l-30 -40 45 -3 c43 -3 49 -7 88
-58 l42 -56 27 54 c24 47 33 56 68 67 23 6 41 14 41 17 0 3 -18 27 -40 53 -45
53 -46 60 -25 101 9 17 14 30 13 30 -2 0 -25 -8 -52 -19 -49 -18 -51 -18 -94
0 -24 11 -46 19 -48 19 -2 0 -4 -28 -4 -62z"/>
<path d="M6847 6068 l-47 -30 -43 17 c-23 10 -46 19 -52 21 -6 3 -9 -15 -7
-46 3 -43 0 -55 -27 -89 -17 -21 -31 -41 -31 -44 0 -3 23 -11 51 -18 46 -12
56 -19 82 -62 32 -52 38 -52 57 5 14 46 22 51 85 58 41 4 51 9 53 25 2 16 -8
26 -43 43 -50 24 -49 21 -34 92 6 28 9 53 7 54 -1 2 -24 -10 -51 -26z"/>
<path d="M8045 5584 c-1287 -19 -4358 -59 -6345 -85 -921 -11 -1681 -23 -1687
-25 -10 -3 -13 -218 -13 -1034 l0 -1030 173 0 c94 0 1005 11 2022 25 1018 14
2872 38 4120 55 1249 16 2444 32 2658 36 l387 7 0 1033 0 1034 -197 -1 c-109
-1 -612 -8 -1118 -15z m-2666 -221 l1 -42 307 1 307 1 27 -33 c36 -43 49 -99
49 -219 0 -70 5 -113 16 -142 23 -57 13 -156 -21 -215 -16 -27 -30 -41 -39
-38 -8 3 -17 1 -21 -5 -11 -19 -52 -12 -84 14 -38 32 -58 96 -66 205 -4 47
-11 100 -17 117 -18 59 -98 100 -98 51 0 -21 -2 -21 -31 9 -32 31 -32 31 -66
15 -29 -14 -33 -19 -28 -46 9 -51 26 -258 25 -311 0 -27 8 -99 18 -158 17 -93
17 -113 6 -145 -7 -20 -13 -50 -14 -65 0 -21 29 -225 34 -234 1 -1 24 -10 51
-21 53 -21 47 -21 175 14 24 7 24 7 -5 -19 -21 -19 -27 -29 -18 -35 24 -16 54
-101 48 -137 -3 -19 -7 -51 -10 -70 l-6 -34 -362 -3 c-199 -2 -369 -7 -378
-11 -11 -6 -30 5 -67 40 -60 57 -73 101 -48 155 24 50 65 66 182 71 55 2 105
7 111 10 7 5 8 20 3 42 -4 19 -5 160 -2 313 11 503 9 631 -8 642 -14 9 -91 6
-148 -6 -37 -8 -62 -74 -62 -170 0 -107 -20 -164 -69 -198 -41 -29 -76 -33
-88 -12 -4 8 -17 15 -28 18 -39 7 -54 62 -49 186 2 62 6 117 8 121 3 4 1 25
-5 45 -15 53 7 215 30 224 9 3 24 13 33 23 15 15 37 18 156 18 77 0 147 3 156
7 9 3 16 1 16 -5 0 -6 14 -11 30 -11 l30 0 1 93 c2 82 2 87 9 42 5 -27 9 -69
9 -92z m3177 32 c4 -8 15 -15 27 -15 11 0 49 -16 84 -35 35 -19 73 -35 83 -35
11 0 20 -4 20 -9 0 -9 103 -145 155 -205 14 -16 25 -34 25 -41 0 -6 7 -26 15
-43 27 -53 66 -224 72 -312 2 -47 0 -137 -5 -200 -11 -114 -11 -115 -78 -245
-74 -145 -146 -242 -202 -276 -20 -13 -53 -40 -72 -60 l-35 -38 -117 -11
c-180 -16 -294 9 -417 91 -67 45 -99 79 -138 147 -14 26 -46 81 -70 122 -50
86 -69 143 -83 251 -5 42 -17 90 -27 107 -15 26 -16 35 -5 52 6 11 12 40 12
64 0 24 7 78 16 119 11 56 12 81 5 96 -16 29 -13 41 8 41 19 0 31 18 31 46 0
9 19 54 42 102 46 94 114 173 171 197 19 8 39 21 47 29 7 9 21 16 31 16 10 0
20 4 23 9 3 4 33 11 66 15 34 4 63 12 66 19 3 8 42 13 125 14 98 2 121 0 125
-12z m-1174 -76 c48 -7 86 -34 99 -66 14 -38 33 -170 31 -223 -1 -25 -3 -95
-4 -157 -2 -66 -8 -117 -14 -123 -7 -6 -49 -12 -95 -13 l-83 -2 -22 39 c-13
22 -30 81 -39 130 -25 144 -39 166 -104 166 -16 0 -33 5 -36 10 -8 14 -142 13
-151 -1 -6 -11 -48 -8 -90 6 -32 10 -55 -46 -47 -113 4 -39 2 -58 -11 -76 -12
-19 -14 -31 -6 -51 6 -15 10 -44 10 -65 0 -48 21 -70 66 -70 29 0 34 3 34 24
0 14 -4 27 -9 30 -16 10 17 110 44 134 21 17 38 22 85 22 66 0 82 -10 100 -65
6 -19 15 -35 19 -35 10 0 25 -256 26 -435 l0 -140 -26 -12 c-15 -7 -54 -16
-88 -19 -52 -6 -61 -4 -61 9 0 9 -9 21 -19 27 -11 5 -25 27 -32 47 -38 119
-50 143 -73 143 -42 0 -53 -20 -62 -110 -11 -112 -11 -168 0 -209 6 -27 6 -32
-5 -26 -8 5 -6 -1 4 -13 15 -16 24 -19 40 -11 12 5 49 13 82 18 49 7 61 6 71
-7 14 -19 106 -12 152 12 28 15 30 14 35 -4 6 -24 39 -26 57 -5 7 8 18 64 25
125 7 60 19 120 28 132 26 41 66 78 82 78 8 0 15 7 15 16 0 17 22 13 70 -11
54 -27 90 -99 68 -134 -8 -13 -4 -29 16 -69 30 -59 32 -80 11 -108 -10 -13
-14 -46 -15 -110 0 -132 -6 -152 -44 -159 -28 -5 -151 -7 -311 -7 -33 0 -65
-4 -72 -10 -8 -7 -29 -8 -56 -3 -52 10 -94 10 -317 0 -299 -12 -355 -9 -382
25 -21 26 -22 56 -4 124 16 61 36 76 103 76 82 0 85 9 78 282 -3 123 -9 282
-14 353 -4 72 -8 146 -8 165 0 19 -3 66 -7 103 -7 62 -11 70 -39 88 -18 11
-44 22 -59 25 -42 10 -70 47 -76 102 -6 67 18 117 71 143 37 19 55 21 231 18
105 -2 253 1 329 5 124 8 139 7 156 -8 16 -15 30 -17 85 -11 55 6 70 12 89 35
l22 27 5 -26 c4 -20 13 -27 42 -32z m-2898 -63 c61 -9 93 -46 106 -121 6 -33
15 -86 21 -118 8 -46 7 -64 -5 -87 -10 -21 -12 -39 -5 -67 13 -57 11 -119 -5
-158 l-15 -35 -84 0 -83 0 -23 40 c-12 21 -31 85 -41 141 -22 115 -38 146 -78
154 -15 3 -41 10 -58 15 -49 16 -135 12 -155 -6 -18 -16 -27 -15 -92 11 -14 6
-21 -2 -38 -40 -15 -34 -18 -50 -10 -58 16 -16 14 -53 -5 -88 -12 -25 -13 -37
-4 -65 7 -20 10 -45 7 -56 -12 -43 40 -87 84 -73 20 7 26 40 8 50 -11 8 -4 50
18 107 16 39 50 58 107 58 59 0 77 -11 97 -56 10 -24 22 -44 27 -44 5 0 12
-64 16 -142 3 -79 9 -199 12 -268 7 -151 1 -174 -53 -189 -57 -16 -123 -14
-123 3 0 8 -8 17 -19 21 -12 4 -29 35 -51 96 -18 50 -38 93 -45 96 -8 2 -26
-1 -42 -9 -23 -11 -28 -20 -29 -53 0 -22 -4 -78 -8 -125 -5 -52 -4 -99 2 -122
9 -32 8 -36 -6 -31 -13 4 -12 1 4 -16 16 -17 25 -20 45 -13 37 14 149 24 149
14 0 -13 79 -22 99 -12 9 4 33 15 54 24 36 15 37 15 37 -4 0 -28 46 -27 61 1
6 12 15 63 19 114 4 50 15 105 23 121 19 36 72 94 86 94 6 0 11 7 11 16 0 11
6 14 23 8 91 -28 134 -78 123 -144 -4 -29 1 -52 21 -96 l26 -58 -21 -37 c-19
-32 -22 -54 -22 -142 0 -143 6 -140 -226 -133 -140 5 -180 3 -197 -9 -17 -11
-32 -11 -67 -3 -50 11 -166 11 -188 -1 -7 -4 -35 -3 -62 3 -34 7 -69 7 -112
-1 -79 -13 -276 -10 -304 5 -36 19 -45 63 -27 129 21 76 41 93 110 93 83 0 85
6 72 331 -13 349 -27 599 -34 625 -4 13 -26 30 -58 44 -79 34 -81 35 -94 61
-17 33 -16 114 2 149 31 60 55 65 320 68 132 2 283 4 336 5 69 1 101 -2 113
-12 12 -10 34 -12 84 -8 59 5 70 10 92 37 l25 30 3 -29 c3 -26 8 -30 46 -35z
m-1734 -23 c0 -5 13 -15 29 -25 24 -13 31 -25 37 -63 8 -56 -9 -120 -36 -135
-24 -13 -76 -13 -101 0 -11 6 -19 7 -19 2 0 -17 -54 -21 -72 -5 -18 16 -49 11
-68 -12 -10 -12 -9 -24 5 -57 14 -36 16 -62 11 -158 -4 -67 -3 -129 3 -148 7
-23 7 -41 -1 -58 -9 -19 -8 -41 1 -90 11 -52 11 -74 1 -109 -11 -38 -10 -67 5
-175 9 -71 14 -143 10 -160 l-7 -30 109 -2 c117 -2 131 -1 213 10 49 6 55 10
58 32 2 14 11 33 19 42 11 13 18 51 23 130 8 125 18 158 52 182 24 17 64 21
72 7 3 -4 28 -11 56 -15 92 -12 118 -74 99 -239 -9 -77 -9 -112 0 -151 14 -60
2 -170 -23 -209 -16 -23 -23 -25 -189 -36 -260 -18 -271 -18 -285 -4 -19 19
-102 14 -102 -5 0 -13 -3 -12 -19 2 -16 15 -19 15 -31 1 -14 -17 -43 -19 -71
-5 -13 8 -25 7 -41 -1 -17 -9 -39 -8 -103 6 -68 14 -87 15 -106 4 -13 -7 -66
-18 -119 -24 -89 -12 -96 -11 -108 6 -7 11 -22 19 -32 19 -39 0 -52 28 -45 99
4 36 13 75 20 87 16 25 98 55 117 43 21 -14 82 -10 103 5 20 14 21 26 29 536
0 47 -3 111 -7 143 -7 47 -6 57 6 57 21 0 22 178 2 227 -13 32 -17 34 -49 28
-23 -5 -45 -2 -64 8 -26 12 -32 12 -55 -1 -23 -14 -27 -13 -62 8 -67 41 -90
102 -61 159 33 64 38 64 401 71 182 4 345 7 363 8 17 1 32 -1 32 -5z m-1063
-29 c51 -39 77 -97 69 -159 -3 -28 -1 -67 5 -86 14 -49 19 -167 8 -218 -5 -24
-19 -57 -30 -72 -19 -27 -26 -29 -82 -29 l-62 0 -29 47 c-18 31 -28 59 -27 83
1 19 3 49 3 66 1 17 -9 59 -21 92 l-23 62 -214 0 c-159 0 -215 -3 -221 -12
-11 -18 -5 -296 8 -335 10 -31 14 -33 54 -33 52 0 72 17 81 68 23 129 91 174
163 108 13 -11 27 -31 32 -44 16 -42 31 -156 30 -237 -1 -44 4 -118 10 -166
17 -139 -13 -205 -98 -216 -59 -8 -95 30 -122 127 -24 86 -40 105 -99 114 -38
6 -43 4 -53 -17 -8 -18 -7 -33 5 -61 12 -30 14 -59 9 -140 -3 -56 -3 -123 1
-148 6 -42 10 -47 39 -53 18 -4 51 -13 75 -21 24 -8 53 -12 66 -8 28 7 41 -22
50 -108 l6 -57 -52 -17 c-39 -12 -105 -17 -248 -21 -107 -2 -204 -8 -215 -13
-23 -11 -103 -31 -125 -32 -8 0 -46 -7 -83 -14 -97 -20 -112 -16 -40 9 74 26
82 33 51 42 -47 14 -68 45 -68 97 0 78 41 105 185 125 l60 8 0 55 c0 30 7 78
14 107 11 40 12 55 3 66 -9 11 -12 110 -10 384 l3 370 -30 36 c-29 34 -32 36
-75 29 -75 -11 -100 -7 -126 21 -34 37 -32 90 5 148 l29 46 173 6 c96 4 235 8
309 8 74 1 167 5 205 9 39 4 137 8 219 8 146 2 150 1 183 -24z"/>
<path d="M8458 5119 c-8 -5 -51 -11 -96 -15 l-81 -7 -39 -46 c-49 -58 -71
-101 -77 -149 -3 -20 -12 -62 -20 -92 -28 -100 -6 -423 36 -531 15 -39 132
-139 162 -139 13 0 44 -7 67 -15 39 -14 45 -14 60 0 9 8 26 15 39 15 12 0 24
7 27 15 4 8 18 15 33 15 38 0 64 31 102 120 22 53 34 99 39 160 4 47 11 92 15
101 3 9 1 54 -5 100 -25 185 -75 328 -140 402 -39 44 -101 78 -122 66z"/>
<path d="M8939 3363 c-25 -4 -28 -10 -44 -91 -41 -206 -116 -405 -271 -712
-280 -556 -532 -896 -952 -1284 -241 -222 -434 -368 -705 -536 -168 -103 -248
-144 -502 -257 -288 -129 -324 -141 -550 -194 -235 -55 -314 -79 -365 -110
-32 -20 -48 -22 -170 -20 -74 1 -247 -8 -385 -19 -137 -11 -295 -20 -350 -20
-157 0 -470 31 -728 71 -72 12 -78 11 -93 -7 -14 -18 -15 -17 -9 17 l5 36
-137 28 c-436 86 -791 243 -1263 555 -321 212 -364 237 -388 218 -13 -11 -13
-9 1 13 l17 26 -57 38 c-76 50 -302 273 -467 460 -143 162 -457 538 -497 595
-13 19 -29 38 -35 42 -7 5 -10 25 -7 50 5 57 -6 71 -58 72 l-44 1 -3 55 -3 55
41 -40 41 -40 -29 65 c-85 188 -131 277 -143 282 -8 3 -54 119 -104 257 l-89
252 -33 -65 -32 -64 60 -174 c34 -95 67 -177 75 -181 8 -4 14 -15 14 -23 0
-27 116 -184 127 -173 7 7 14 1 21 -20 12 -35 4 -39 -42 -21 -25 9 -23 4 29
-100 45 -91 59 -110 78 -110 14 0 18 -3 10 -8 -25 -16 78 -199 232 -412 249
-346 554 -660 641 -660 32 0 37 -14 19 -50 l-16 -30 133 -87 c73 -47 140 -86
148 -87 8 -1 27 -22 42 -48 54 -91 229 -212 528 -363 214 -108 419 -197 645
-283 192 -72 308 -106 435 -127 52 -8 120 -21 150 -30 50 -13 56 -13 74 3 18
16 19 16 13 0 -3 -10 -2 -20 2 -23 20 -12 307 -55 426 -64 140 -11 255 -2 303
23 23 12 30 12 46 1 52 -38 284 -48 481 -20 346 48 870 182 1170 300 264 103
500 215 631 300 45 29 182 127 305 217 123 90 258 187 299 215 41 28 118 96
171 150 153 158 181 191 174 213 -5 14 22 42 124 130 112 97 136 122 170 185
23 41 103 167 179 282 169 254 238 370 309 521 71 150 162 370 208 502 35 100
95 304 95 322 0 8 -52 9 -101 1z"/>
<path d="M8771 3298 c-19 -94 -112 -366 -171 -503 -79 -180 -128 -274 -266
-507 -142 -240 -167 -276 -269 -397 -40 -47 -84 -105 -97 -128 -38 -66 -317
-352 -457 -468 -69 -58 -162 -137 -206 -175 -97 -86 -320 -236 -474 -321 -334
-182 -930 -413 -1221 -473 -250 -51 -374 -61 -770 -61 -500 1 -874 29 -1095
84 -404 100 -925 342 -1370 635 -239 158 -386 286 -668 584 -218 230 -199 206
-398 502 -79 118 -170 242 -202 276 -32 34 -52 64 -46 66 12 4 -34 116 -151
368 -37 80 -94 216 -126 302 -45 121 -63 158 -76 158 -10 0 -18 -5 -18 -11 0
-5 43 -131 95 -280 70 -198 114 -305 166 -405 54 -101 69 -138 59 -144 -9 -6
-6 -12 13 -25 39 -25 130 -148 280 -376 147 -224 220 -319 366 -478 199 -216
466 -436 783 -644 391 -257 766 -422 1182 -522 183 -44 518 -109 676 -131 159
-23 717 -26 880 -6 774 98 1484 376 2055 806 602 452 1132 1106 1395 1720 63
146 132 348 165 478 32 123 32 138 2 138 -20 0 -25 -8 -36 -62z"/>
<path d="M7391 3336 c-6 -7 -18 -38 -27 -67 -20 -67 -53 -134 -138 -274 -64
-107 -71 -135 -23 -99 55 42 122 152 206 342 l50 112 -28 0 c-16 0 -34 -6 -40
-14z"/>
<path d="M7501 3315 c-38 -34 -52 -60 -169 -305 -33 -69 -91 -172 -130 -230
-66 -100 -148 -190 -173 -190 -12 0 -3 16 68 119 29 41 41 67 34 74 -5 5 -14
6 -20 3 -17 -11 -221 -264 -221 -275 0 -25 25 -20 67 13 26 20 48 34 51 31 12
-11 -91 -148 -173 -230 -108 -107 -224 -196 -463 -352 -191 -125 -292 -199
-292 -213 0 -6 16 -2 35 7 33 16 36 16 55 -2 20 -19 22 -18 84 12 35 17 96 60
137 96 41 35 146 119 233 186 367 279 488 416 737 827 101 168 219 412 219
453 0 22 -41 10 -79 -24z"/>
<path d="M1958 3267 c-15 -12 -10 -26 50 -157 48 -105 102 -199 196 -340 156
-235 339 -466 376 -473 17 -4 47 -32 83 -78 35 -44 77 -84 110 -104 28 -17
126 -85 217 -150 238 -171 314 -219 463 -290 476 -229 1079 -331 1567 -266 85
12 198 26 250 32 127 15 127 15 104 40 -18 20 -18 20 31 14 104 -14 318 33
461 101 70 33 185 126 173 139 -8 8 -818 -248 -813 -257 7 -11 -93 -10 -606 7
-245 8 -460 15 -477 15 -22 0 -33 5 -33 15 0 8 -14 17 -37 21 -49 9 -287 91
-336 116 -38 19 -38 19 -73 -2 l-34 -22 0 25 c0 33 -64 73 -325 205 -309 155
-348 184 -643 476 -153 150 -258 270 -288 328 -25 49 -3 30 248 -212 295 -285
390 -368 508 -445 529 -348 1174 -529 1735 -486 193 15 448 54 602 92 239 58
563 179 699 260 55 33 140 106 132 115 -2 2 -179 -66 -394 -152 l-389 -155
-281 -58 -281 -59 -410 28 c-489 33 -482 32 -861 184 -241 97 -267 110 -421
210 -110 73 -220 156 -337 258 -158 136 -193 173 -381 400 -182 219 -222 274
-318 436 -61 102 -115 187 -120 189 -6 1 -16 -1 -23 -5 -12 -8 24 -78 263
-509 18 -33 20 -44 10 -53 -9 -8 -53 59 -189 285 -97 162 -180 295 -184 295
-4 0 -14 -6 -24 -13z"/>
<path d="M6843 3124 l-42 -25 -47 20 c-25 12 -49 21 -52 21 -2 0 -2 -21 1 -47
4 -41 1 -54 -29 -100 -19 -29 -34 -55 -34 -57 0 -2 23 -9 50 -16 40 -10 58
-21 89 -57 l38 -45 7 33 c11 58 31 78 86 85 28 4 52 10 55 14 2 4 -9 17 -26
29 -30 22 -31 22 -51 4 -20 -18 -21 -17 -15 2 8 27 27 135 27 152 0 18 -9 16
-57 -13z"/>
<path d="M2711 3100 c-42 -27 -47 -27 -73 -14 -72 37 -73 37 -70 -20 3 -45 0
-56 -27 -90 -18 -22 -28 -43 -24 -46 5 -4 29 -13 54 -19 39 -11 50 -20 74 -61
16 -27 32 -47 36 -45 4 3 10 20 13 39 9 45 38 69 94 76 61 7 63 31 7 63 -42
24 -44 30 -32 105 4 23 4 42 0 41 -5 0 -28 -13 -52 -29z"/>
<path d="M6356 2693 c20 -66 18 -77 -21 -119 -19 -20 -35 -40 -35 -45 0 -4 17
-11 38 -15 53 -9 76 -24 110 -67 l30 -38 7 33 c13 65 13 65 81 78 l65 12 -17
27 c-9 14 -27 37 -40 52 -25 27 -30 61 -14 103 12 32 11 32 -50 1 -42 -21 -53
-23 -82 -13 -18 6 -42 17 -53 25 -31 21 -34 16 -19 -34z"/>
<path d="M3093 2669 l-52 -30 -40 21 c-57 29 -61 27 -55 -27 5 -43 3 -52 -25
-87 -17 -21 -31 -42 -31 -46 0 -5 23 -13 51 -20 45 -11 54 -18 82 -63 l31 -51
13 30 c6 16 12 34 13 40 1 25 41 47 85 46 25 0 45 4 45 8 0 5 3 15 6 24 4 11
-7 22 -40 38 -49 23 -50 27 -36 98 4 25 7 46 6 47 -1 1 -25 -12 -53 -28z"/>
<path d="M6607 2256 c-131 -111 -246 -210 -255 -220 -16 -16 -16 -17 3 -10 87
32 329 214 416 313 57 65 96 121 82 120 -4 0 -115 -91 -246 -203z"/>
<path d="M5905 2423 c4 -10 10 -39 12 -65 5 -43 2 -51 -26 -83 -17 -20 -31
-40 -31 -45 0 -5 19 -13 43 -16 32 -5 52 -17 84 -50 24 -24 45 -44 47 -44 3 0
8 20 11 44 7 41 9 45 43 50 76 13 92 18 92 26 0 5 -18 30 -40 55 -44 50 -45
57 -29 104 6 18 9 34 6 37 -2 3 -21 -5 -42 -17 -45 -27 -81 -27 -135 1 -40 20
-42 20 -35 3z"/>
<path d="M3493 2348 l-52 -29 -47 20 c-25 12 -48 21 -51 21 -2 0 -1 -22 3 -49
6 -46 4 -53 -25 -88 -17 -21 -31 -41 -31 -44 0 -4 23 -13 50 -20 46 -12 54
-18 84 -68 l34 -55 12 44 c17 65 34 80 92 80 26 0 48 4 48 9 0 5 2 16 5 23 4
9 -10 22 -40 36 -48 23 -50 28 -35 102 4 25 8 46 7 46 -1 1 -25 -12 -54 -28z"/>
<path d="M2115 2246 c-38 -11 -56 -20 -137 -74 -65 -43 -140 -143 -188 -251
-29 -66 -30 -75 -24 -156 6 -77 11 -92 44 -143 24 -35 57 -69 88 -89 43 -28
60 -33 112 -33 73 0 90 8 153 68 55 54 62 89 21 121 -27 22 -36 20 -109 -17
-22 -11 -56 -24 -77 -27 -32 -6 -41 -3 -73 27 -35 31 -38 39 -38 89 -1 74 54
181 137 267 77 80 89 87 156 83 59 -3 80 -13 80 -41 0 -10 7 -23 15 -30 23
-19 18 -65 -15 -130 -40 -78 -39 -103 4 -129 18 -12 36 -21 40 -21 3 0 18 19
33 43 15 23 46 65 69 92 76 92 83 127 31 149 -24 9 -39 26 -50 52 -46 109
-171 178 -272 150z"/>
<path d="M5626 2149 l-48 -30 -49 20 c-26 12 -50 21 -52 21 -2 0 -2 -22 1 -49
4 -45 1 -54 -27 -88 -17 -21 -31 -41 -31 -44 0 -4 23 -12 51 -19 45 -11 54
-18 81 -61 29 -48 48 -56 48 -21 0 9 9 32 20 50 18 29 24 32 69 32 41 0 51 3
56 21 8 24 11 21 -42 48 -48 24 -47 19 -33 91 6 29 9 54 7 56 -1 2 -24 -11
-51 -27z"/>
<path d="M4010 2101 l-45 -28 -47 23 c-26 13 -49 24 -51 24 -2 0 -2 -24 1 -53
4 -49 1 -57 -27 -89 -17 -20 -31 -38 -31 -42 0 -3 24 -12 53 -21 47 -13 56
-21 82 -65 16 -27 32 -47 36 -45 4 3 10 20 13 39 9 45 38 69 94 76 65 7 67 30
7 66 -50 29 -50 30 -28 122 7 29 -2 28 -57 -7z"/>
<path d="M5098 2079 l-47 -30 -51 26 -52 26 7 -51 c7 -48 5 -54 -24 -91 -18
-21 -30 -43 -27 -48 3 -5 26 -14 51 -20 39 -10 50 -19 76 -61 17 -28 32 -50
34 -50 3 0 9 18 15 39 14 55 54 84 103 78 20 -3 37 -1 37 3 0 5 3 15 6 24 4
11 -7 22 -41 38 l-47 23 6 48 c4 26 9 54 12 62 9 21 -5 18 -58 -16z"/>
<path d="M6880 2064 c-17 -5 -40 -49 -40 -78 0 -19 40 -148 81 -261 110 -304
132 -386 109 -400 -18 -11 -11 -74 10 -95 l21 -21 37 30 c20 16 64 54 97 84
57 51 59 55 47 81 -10 24 -16 26 -50 20 -35 -5 -39 -4 -56 28 -26 48 -18 68
41 108 29 19 52 40 53 46 0 6 9 19 21 30 20 18 21 18 57 -1 43 -23 52 -53 22
-80 -33 -30 -26 -71 18 -94 21 -11 28 -8 69 26 25 21 60 48 78 60 41 27 75 70
75 94 0 30 -44 53 -79 41 -28 -10 -38 -4 -173 94 -79 58 -170 121 -203 141
-33 20 -80 55 -105 78 -74 69 -92 79 -130 69z m188 -246 c22 -18 60 -45 85
-60 36 -21 44 -31 40 -47 -3 -11 -14 -23 -24 -26 -11 -4 -30 -17 -42 -30 -12
-13 -31 -25 -41 -27 -16 -2 -22 6 -32 52 -6 30 -20 74 -29 97 -15 36 -16 73
-1 73 2 0 22 -15 44 -32z"/>
<path d="M4562 2033 l-44 -26 -44 21 c-25 12 -47 22 -51 22 -3 0 -3 -22 1 -48
6 -45 4 -52 -29 -93 l-35 -44 53 -15 c45 -14 56 -22 86 -69 l35 -53 12 42 c19
63 39 80 96 80 45 0 48 2 48 25 0 20 -9 30 -43 46 l-44 21 8 42 c10 53 11 76
2 76 -5 -1 -28 -13 -51 -27z"/>
<path d="M2603 1843 c-27 -15 -61 -37 -75 -48 -27 -23 -118 -139 -118 -152 0
-4 -11 -35 -25 -68 -21 -50 -25 -77 -25 -163 0 -85 4 -110 22 -150 28 -58 88
-120 148 -150 41 -20 51 -22 112 -13 49 7 89 21 144 51 68 38 81 51 125 118
69 105 93 190 87 301 -5 89 -10 104 -57 177 -40 64 -148 118 -241 123 -34 1
-59 -5 -97 -26z m188 -125 c58 -28 79 -65 79 -140 0 -65 -47 -205 -83 -247
-14 -17 -28 -39 -32 -49 -3 -11 -15 -24 -28 -30 -12 -7 -37 -20 -54 -31 -28
-16 -39 -17 -80 -7 -65 15 -101 54 -116 122 -14 69 -3 113 55 217 64 115 134
179 202 186 5 1 31 -9 57 -21z"/>
<path d="M6535 1790 c-16 -11 -40 -20 -52 -20 -12 0 -27 -8 -32 -18 -5 -10
-68 -51 -141 -92 -111 -63 -132 -79 -139 -105 -9 -32 5 -71 33 -94 9 -8 16
-21 16 -31 0 -9 9 -25 20 -35 11 -10 22 -26 25 -35 7 -22 63 -34 81 -19 21 18
17 46 -18 115 l-32 63 35 34 c47 46 124 89 151 85 22 -3 23 -7 20 -68 -1 -36
-9 -126 -17 -200 -8 -74 -19 -189 -24 -255 -6 -66 -13 -135 -16 -153 -9 -40
16 -82 48 -82 12 0 60 27 107 60 47 32 134 84 194 115 60 30 116 60 123 67 16
13 17 46 0 75 -6 12 -34 60 -60 107 -64 115 -110 146 -135 91 -18 -40 -15 -56
23 -115 44 -70 44 -93 1 -122 -19 -13 -49 -35 -67 -49 -19 -15 -49 -29 -67
-33 l-33 -6 6 88 c3 48 10 128 15 177 37 358 40 428 16 454 -24 26 -43 26 -81
1z"/>
<path d="M3062 1639 c-34 -13 -30 -61 8 -92 38 -32 38 -50 0 -162 -17 -49 -48
-155 -68 -235 -37 -140 -39 -145 -62 -141 -56 8 -64 6 -77 -21 -7 -14 -10 -33
-7 -42 8 -21 56 -46 87 -46 14 0 30 -6 36 -13 12 -15 77 -37 127 -43 66 -8 74
58 11 91 -39 20 -39 20 -35 75 4 46 51 215 91 324 9 24 12 26 22 13 6 -9 23
-71 38 -139 15 -68 34 -152 42 -188 8 -36 15 -74 15 -84 0 -46 41 -153 69
-180 39 -37 54 -26 77 53 8 31 29 101 45 156 16 55 45 156 65 225 46 158 46
158 83 152 25 -3 32 0 42 21 19 42 -1 59 -121 106 -108 42 -112 43 -131 25
-29 -26 -20 -55 29 -87 39 -27 43 -32 36 -60 -3 -17 -17 -50 -30 -75 -18 -34
-22 -54 -18 -83 6 -38 -14 -100 -36 -114 -13 -8 -38 50 -46 107 -3 23 -15 72
-26 108 -34 116 -36 124 -43 190 -9 78 -18 98 -53 111 -132 51 -148 56 -170
48z"/>
<path d="M5992 1507 c-112 -35 -132 -51 -113 -93 9 -21 18 -24 61 -24 60 0 75
-17 85 -103 5 -44 13 -63 32 -81 19 -18 27 -37 31 -75 6 -70 -11 -68 -92 12
-35 34 -87 80 -114 102 -28 22 -73 68 -101 103 -37 44 -58 62 -75 62 -35 0
-158 -40 -178 -58 -39 -34 -7 -82 54 -82 32 0 37 -4 51 -39 9 -21 23 -67 32
-102 9 -35 41 -134 71 -219 30 -85 54 -157 54 -161 0 -4 -16 -13 -35 -19 -30
-10 -35 -16 -35 -43 0 -61 35 -78 95 -47 22 11 50 20 63 20 31 0 132 48 139
67 3 8 0 26 -6 40 -11 24 -16 25 -59 20 -45 -5 -48 -4 -68 26 -11 18 -30 66
-43 107 -12 41 -33 110 -47 153 -28 90 -29 107 -10 107 7 0 87 -73 177 -162
208 -207 233 -228 282 -228 35 0 37 2 37 33 -1 17 -10 57 -21 87 -11 30 -31
91 -44 135 -13 44 -44 143 -69 220 -26 76 -46 147 -46 156 0 8 11 21 25 27 29
13 32 38 9 70 -19 27 -16 27 -142 -11z"/>
<path d="M3728 1412 c-26 -30 -29 -41 -18 -62 7 -13 21 -20 40 -20 36 0 60
-32 60 -80 0 -20 -11 -94 -25 -165 -14 -72 -30 -159 -35 -195 -5 -36 -13 -83
-17 -105 l-8 -40 -60 -3 c-63 -3 -85 -14 -85 -42 0 -23 36 -54 55 -47 8 4 15
2 15 -3 0 -6 16 -10 35 -10 20 0 71 -9 115 -21 44 -11 94 -19 112 -17 27 2 34
8 36 30 3 24 -3 30 -47 53 -46 23 -51 29 -51 58 0 17 5 50 11 72 5 22 11 60
12 85 2 37 6 46 23 48 35 5 65 -29 71 -79 6 -56 25 -83 51 -75 26 9 33 27 43
106 23 176 23 204 1 223 -25 23 -39 15 -58 -30 -8 -18 -21 -36 -29 -40 -22 -8
-62 5 -69 22 -7 20 10 150 25 186 l10 26 110 -27 c61 -16 114 -31 117 -35 4
-4 7 -45 7 -92 1 -72 4 -87 20 -99 47 -35 70 -1 84 125 16 149 17 149 -214
196 -176 35 -305 64 -314 69 -5 3 -15 -2 -23 -12z"/>
<path d="M5167 1300 c-13 -11 -27 -30 -30 -42 -6 -24 -28 -183 -32 -233 -14
-175 -39 -366 -50 -392 -8 -18 -21 -33 -29 -33 -16 0 -26 -21 -26 -58 0 -52 8
-54 111 -33 136 28 149 34 149 71 0 23 -4 30 -20 30 -29 0 -60 36 -60 69 0 40
32 61 90 61 26 0 55 7 66 15 29 22 60 18 84 -12 29 -37 24 -77 -11 -81 -49 -6
-63 -78 -20 -102 12 -6 38 -6 72 0 30 5 73 12 96 14 23 3 55 10 70 18 53 25
36 89 -26 101 -25 5 -38 24 -101 144 -40 76 -98 178 -129 228 -31 49 -61 107
-67 127 -7 21 -24 58 -38 83 -30 51 -57 58 -99 25z m102 -268 c7 -16 30 -57
51 -92 44 -72 41 -90 -17 -90 -19 0 -43 -4 -53 -10 -33 -18 -53 -2 -46 39 3
20 8 59 12 86 8 78 13 95 28 95 7 0 19 -13 25 -28z"/>
<path d="M4430 1275 c-6 -15 -8 -35 -5 -45 7 -22 47 -40 89 -40 57 0 59 -8 47
-220 -6 -121 -6 -201 0 -216 12 -34 12 -91 -2 -116 -10 -18 -17 -19 -65 -13
-36 4 -54 3 -54 -4 0 -6 -9 -11 -20 -11 -16 0 -20 -7 -20 -30 0 -53 26 -61
234 -67 178 -6 186 -5 186 13 -1 59 -30 84 -100 84 -21 0 -42 5 -46 12 -4 6
-7 68 -7 137 1 69 1 171 1 226 1 55 0 118 -1 140 l-2 40 80 5 80 5 3 33 c4 43
-9 58 -66 72 -50 13 -69 14 -117 10 -16 -1 -69 1 -117 5 l-87 8 -11 -28z"/>
</g>
</svg>
