<svg xmlns="http://www.w3.org/2000/svg" viewBox="0 0 160.06 79.72"><defs><style>.cls-1{fill:#343435;}.cls-2{fill:#fff;}.cls-3{fill:#00abff;}</style></defs><title>Recurso 2</title><g id="Capa_2" data-name="Capa 2"><g id="Capa_1-2" data-name="Capa 1"><path class="cls-1" d="M56.56,71.75H29.06c0,6.67-5.16,6-5.16,6H8.06c-6.83,0-6.7-4.87-6.7-4.87V37.25c0-8,11.87-12.75,11.87-12.75S19.36,11,22.48,5.38,32.23,0,32.23,0H90.56s6.63-.25,9.75,5.38,9.25,19.12,9.25,19.12,11.88,4.75,11.88,12.75V72.88s.12,4.87-6.71,4.87H98.9s-5.17.67-5.17-6H56.56Z"/><path class="cls-1" d="M12,21.58,13.56,16s.59-2.25-2.5-2.83S1.53,10.25.25,14.31A3.6,3.6,0,0,0,3,19.19Z"/><path class="cls-1" d="M111.08,21.58,109.5,16s-.58-2.25,2.5-2.83,9.53-2.92,10.81,1.14a3.6,3.6,0,0,1-2.75,4.88Z"/><path class="cls-2" d="M62.19,22H94.94c6.5,0,7.12-.37,7.56-1.06s-.25-2.19-.25-2.19-.5-1.12-3.75-8S90.25,4.5,90.25,4.5H33.06s-5-.62-8.25,6.25-3.75,8-3.75,8-.68,1.5-.25,2.19S21.88,22,28.38,22H62.19Z"/><polygon class="cls-2" points="160.06 1.53 65.62 53.1 30.31 29.84 64.5 79.72 160.06 1.53"/><polygon class="cls-3" points="150.06 8.75 65.81 54.75 34.31 34 64.81 78.5 150.06 8.75"/></g></g></svg>